<svg xmlns="http://www.w3.org/2000/svg" width="50" height="50" viewBox="0 0 50 50">
<g>
<path d="M 47.93 6.84 C48.72,8.58 49.50,10.00 49.68,10.00 C49.86,10.00 50.00,7.75 50.00,5.00 L 50.00 50.00 L 49.98 44.75 C49.97,41.32 49.66,39.98 49.09,40.90 C48.56,41.73 47.49,42.02 46.46,41.62 C45.40,41.22 43.91,41.66 42.69,42.73 C41.06,44.15 41.14,43.84 43.08,41.17 C45.24,38.20 45.54,36.62 45.83,26.50 C46.21,13.67 45.04,9.64 40.08,6.71 C36.15,4.39 14.56,4.22 11.33,6.48 C9.36,7.86 9.17,7.79 8.59,5.48 C8.24,4.12 7.41,2.98 6.73,2.96 C6.05,2.95 6.62,2.29 8.00,1.50 C10.41,0.12 10.31,0.07 5.25,0.04 L 0.00 0.00 L 39.53 0.00 L 43.02 1.84 C44.93,2.85 47.14,5.10 47.93,6.84 ZM 39.48 10.25 C42.06,12.48 42.08,12.60 41.79,25.37 L 41.50 38.23 L 38.77 35.50 C37.26,33.99 36.33,32.25 36.69,31.63 C37.05,31.01 36.29,31.40 34.99,32.50 L 32.64 34.50 L 34.32 32.03 C36.64,28.62 36.42,24.24 33.75,20.32 C31.17,16.52 26.29,15.08 21.80,16.77 C20.25,17.35 19.21,17.47 19.48,17.03 C20.07,16.08 14.10,10.01 12.56,9.98 C11.98,9.98 12.18,9.53 13.00,9.00 C13.82,8.47 19.54,8.02 25.69,8.02 C35.88,8.00 37.12,8.20 39.48,10.25 ZM 33.00 26.45 C33.00,27.85 32.78,29.00 32.50,29.00 C32.22,29.00 32.00,28.59 32.00,28.09 C32.00,27.58 30.11,25.78 27.80,24.09 C25.49,22.39 24.03,20.99 24.55,20.98 C25.07,20.98 24.83,20.53 24.00,20.00 C22.83,19.25 23.12,19.03 25.30,19.02 C28.81,19.00 33.00,23.04 33.00,26.45 ZM 35.00 14.56 C35.00,16.26 37.58,16.49 38.57,14.89 C39.32,13.67 37.08,11.83 35.80,12.62 C35.36,12.90 35.00,13.77 35.00,14.56 Z" fill="rgb(152,72,163)"/>
<path d="M 40.00 40.00 C38.23,41.77 36.67,42.00 26.55,42.00 L 15.10 42.00 L 12.08 38.76 C8.55,34.99 7.59,30.33 8.18,19.88 C8.53,13.59 8.90,12.48 11.35,10.38 C11.68,10.09 11.98,9.84 12.29,9.62 C12.15,9.84 12.23,9.98 12.56,9.98 C14.10,10.01 20.07,16.08 19.48,17.03 C19.26,17.38 19.89,17.38 20.94,17.06 C17.57,18.76 15.00,22.29 15.00,27.00 C15.00,29.31 15.95,31.15 18.40,33.60 C21.11,36.31 22.60,37.00 25.71,37.00 C28.60,37.00 31.03,35.95 32.79,34.28 L 32.64 34.50 L 34.99 32.50 C36.29,31.40 37.05,31.01 36.69,31.63 C36.33,32.25 37.26,33.99 38.77,35.50 L 41.28 38.01 C40.99,38.88 40.58,39.42 40.00,40.00 ZM 0.00 0.00 L 0.00 11.50 L 1.75 8.02 C2.68,6.17 4.88,3.68 6.72,2.39 C6.36,2.73 6.34,2.95 6.73,2.96 C7.41,2.98 8.24,4.12 8.59,5.48 C8.91,6.76 9.11,7.35 9.55,7.39 C5.98,9.62 5.07,13.76 5.04,21.27 L 5.00 29.04 L 2.50 28.41 L 0.00 27.78 ZM 30.55 31.55 C25.82,36.27 18.00,32.94 18.00,26.20 C18.00,24.11 20.86,20.95 23.49,19.62 C23.61,19.73 23.78,19.86 24.00,20.00 C24.83,20.53 25.07,20.98 24.55,20.98 C24.03,20.99 25.49,22.39 27.80,24.09 C30.11,25.78 32.00,27.58 32.00,28.09 C32.00,28.48 32.14,28.82 32.33,28.95 C31.88,29.90 31.25,30.84 30.55,31.55 ZM 42.62 48.31 L 39.50 49.87 L 44.75 49.94 L 50.00 50.00 L 49.98 44.75 L 49.97 43.79 C49.98,44.09 49.98,44.41 49.98,44.75 L 50.00 50.00 L 11.47 50.00 C21.25,50.00 22.85,49.78 22.36,48.50 C22.05,47.67 21.05,46.92 20.14,46.83 C19.24,46.74 23.07,46.40 28.65,46.08 C36.29,45.64 39.75,45.00 42.00,42.70 C41.20,43.89 41.45,43.81 42.69,42.73 C43.91,41.66 45.40,41.22 46.46,41.62 C47.49,42.02 48.56,41.73 49.09,40.90 C49.15,40.79 49.22,40.71 49.28,40.67 L 47.85 43.13 C46.69,45.12 44.34,47.46 42.62,48.31 ZM 41.53 37.09 L 41.79 25.37 C41.91,20.05 41.98,16.93 41.83,14.93 C42.00,16.94 42.00,20.02 42.00,25.07 C42.00,31.78 41.93,35.12 41.53,37.09 ZM 11.18 6.58 C11.23,6.55 11.28,6.52 11.33,6.48 C13.53,4.94 24.26,4.53 32.11,5.15 C30.20,5.05 27.97,5.01 25.35,5.01 C18.76,5.01 14.25,5.37 11.18,6.58 ZM 30.20 8.04 C28.92,8.02 27.44,8.01 25.69,8.02 C20.79,8.02 16.16,8.30 14.07,8.69 C15.92,8.07 18.77,8.00 25.42,8.00 C27.28,8.00 28.85,8.01 30.20,8.04 ZM 42.95 9.02 C44.81,11.18 45.64,14.24 45.85,19.54 C45.61,16.02 45.16,13.02 44.48,11.61 C44.01,10.61 43.52,9.75 42.95,9.02 ZM 39.48 10.25 C39.03,9.86 38.62,9.53 38.18,9.27 C38.59,9.49 38.97,9.76 39.37,10.07 C40.67,11.10 41.32,11.65 41.66,13.55 C41.35,11.89 40.70,11.30 39.48,10.25 ZM 30.10 21.10 C28.69,19.88 26.97,19.04 25.38,19.02 C25.48,19.01 25.58,19.00 25.68,19.00 C27.11,19.00 28.74,19.86 30.10,21.10 ZM 35.73 28.71 C36.19,26.04 35.62,23.07 33.77,20.37 C33.40,19.83 33.01,19.35 32.59,18.92 C33.02,19.34 33.40,19.81 33.75,20.32 C35.61,23.06 36.28,26.01 35.73,28.71 ZM 45.11 36.76 C44.81,38.20 44.39,39.19 43.74,40.21 C44.04,39.63 44.34,38.99 44.64,38.28 C44.81,37.88 44.97,37.36 45.11,36.76 ZM 8.36 1.29 L 9.43 0.58 C9.26,0.75 8.89,0.98 8.36,1.29 ZM 38.88 6.21 C39.32,6.35 39.69,6.49 39.98,6.65 C39.64,6.49 39.27,6.34 38.88,6.21 ZM 33.00 26.54 C33.00,26.52 33.00,26.50 33.00,26.48 L 33.00 26.50 C33.00,26.51 33.00,26.53 33.00,26.54 Z" fill="rgb(211,42,56)"/>
<path d="M 0.03 45.25 L 0.00 50.00 L 0.00 27.78 L 2.50 28.41 L 5.00 29.04 L 5.04 21.27 C5.07,13.76 5.98,9.62 9.55,7.39 C9.71,7.41 9.89,7.36 10.11,7.25 C5.71,10.28 5.07,12.83 5.04,25.53 C5.00,37.22 5.24,38.38 8.59,42.84 C8.74,43.03 10.57,43.82 12.68,44.59 C15.30,45.56 20.00,45.92 27.65,45.75 C31.68,45.66 34.36,45.55 36.25,45.32 C34.30,45.68 31.84,45.90 28.65,46.08 C23.07,46.40 19.24,46.74 20.14,46.83 C21.05,46.92 22.05,47.67 22.36,48.50 C22.85,49.78 21.25,50.00 11.47,50.00 L 9.46 50.00 L 5.74 46.94 C3.70,45.26 1.59,43.12 1.05,42.19 C0.30,40.91 0.05,41.64 0.03,45.25 ZM 9.99 39.27 C8.23,37.02 7.92,35.84 8.09,27.85 C8.39,33.04 9.61,36.12 12.08,38.76 L 14.95 41.83 C11.83,41.58 11.30,40.93 9.99,39.27 ZM 0.00 0.00 L 0.06 9.50 L 2.20 6.63 C3.28,5.19 5.34,3.28 6.98,2.17 C6.88,2.25 6.79,2.32 6.72,2.39 C4.88,3.68 2.68,6.17 1.75,8.02 L 0.00 11.50 ZM 45.11 36.76 C44.97,37.36 44.81,37.88 44.64,38.28 C44.34,38.99 44.04,39.63 43.74,40.21 C43.63,40.37 43.52,40.54 43.41,40.71 C44.33,39.20 44.97,37.40 45.37,35.04 C45.30,35.69 45.21,36.25 45.11,36.76 ZM 38.88 6.21 C39.27,6.34 39.64,6.49 39.98,6.65 C40.01,6.67 40.05,6.69 40.08,6.71 C40.24,6.80 40.40,6.90 40.56,7.00 C37.47,5.39 32.69,5.00 25.35,5.01 C27.97,5.01 30.20,5.05 32.11,5.15 C34.90,5.38 37.33,5.73 38.88,6.21 ZM 40.86 43.65 C40.92,43.60 40.98,43.55 41.04,43.50 C41.56,43.03 42.04,42.54 42.47,42.02 C42.28,42.28 42.12,42.51 42.00,42.70 C41.65,43.06 41.28,43.37 40.86,43.65 ZM 12.11 9.76 C11.86,9.94 11.61,10.15 11.35,10.38 C10.03,11.51 9.32,12.36 8.88,13.88 C9.29,12.21 9.99,11.54 11.31,10.41 C11.59,10.17 11.85,9.95 12.11,9.76 ZM 14.07 8.69 C15.92,8.07 18.76,8.00 25.42,8.00 C18.77,8.00 15.92,8.07 14.07,8.69 Z" fill="rgb(236,168,52)"/>
<path d="M 0.03 45.25 C0.05,41.64 0.30,40.91 1.05,42.19 C1.59,43.12 3.70,45.26 5.74,46.94 L 9.46 50.00 L 4.73 50.00 L 0.00 50.00 L 0.03 45.25 ZM 42.62 48.31 C44.34,47.46 46.69,45.12 47.85,43.13 L 49.95 39.50 L 49.98 44.75 L 50.00 50.00 L 44.75 49.94 L 39.50 49.87 L 42.62 48.31 ZM 12.68 44.59 C10.57,43.82 8.74,43.03 8.59,42.84 C5.24,38.38 5.00,37.22 5.04,25.53 C5.07,12.41 5.76,10.12 10.57,6.95 C13.05,5.31 15.32,5.01 25.35,5.01 C43.54,5.00 46.00,7.37 46.00,24.93 C46.00,35.78 44.85,40.10 41.04,43.50 C39.12,45.21 37.17,45.54 27.65,45.75 C20.00,45.92 15.30,45.56 12.68,44.59 ZM 40.00 40.00 C41.79,38.21 42.00,36.67 42.00,25.07 C42.00,12.30 41.97,12.12 39.37,10.07 C37.05,8.25 35.35,8.00 25.42,8.00 C14.91,8.00 13.91,8.17 11.31,10.41 C8.57,12.76 8.49,13.11 8.17,24.68 C7.87,35.57 8.02,36.75 9.99,39.27 C12.14,41.99 12.18,42.00 25.07,42.00 C36.67,42.00 38.21,41.79 40.00,40.00 ZM 47.93 6.84 C47.14,5.10 44.93,2.85 43.02,1.84 L 39.53 0.00 L 44.77 0.00 L 50.00 0.00 L 50.00 5.00 C50.00,7.75 49.86,10.00 49.68,10.00 C49.50,10.00 48.72,8.58 47.93,6.84 ZM 0.03 4.75 L 0.00 0.00 L 5.25 0.00 L 10.50 0.01 L 7.42 1.89 C5.72,2.92 3.38,5.06 2.20,6.63 L 0.06 9.50 L 0.03 4.75 ZM 18.40 33.60 C15.95,31.15 15.00,29.31 15.00,27.00 C15.00,16.43 27.93,11.85 33.77,20.37 C38.81,27.72 34.31,37.00 25.71,37.00 C22.60,37.00 21.11,36.31 18.40,33.60 ZM 30.55 31.55 C31.90,30.20 33.00,27.92 33.00,26.50 C33.00,23.24 28.86,19.00 25.68,19.00 C22.80,19.00 18.00,23.50 18.00,26.20 C18.00,32.94 25.82,36.27 30.55,31.55 ZM 35.00 14.56 C35.00,13.77 35.36,12.90 35.80,12.62 C37.08,11.83 39.32,13.67 38.57,14.89 C37.58,16.49 35.00,16.26 35.00,14.56 Z" fill="rgb(248,219,225)"/>
</g>
</svg>